<svg xmlns="http://www.w3.org/2000/svg" width="280" height="89" viewBox="0">
  <image overflow="visible" width="280" height="89"/>
  <path fill="#c60c30" d="M0 0h280v89H0z"/>
  <path fill="#FFF" d="M36.073 32.338c0-5.228-4.26-3.588-4.26-4.972 0-.36.416-.512.727-.513 1.61 0 3.118.205 4.676.205 3.43 0 6.807-.205 11.274-.205 9.196 0 18.237 6.868 18.237 16.35 0 11.79-5.664 19.94-20.055 19.94-2.65 0-5.3-.204-7.95-.204-.467 0-5.456.2-5.818.2-.416 0-.52-.21-.52-.52 0-1.18 3.69.1 3.69-4.77V32.33zM40.18 55.71c0 .82-.157 3.282.31 3.742 1.715 1.692 5.663 2.307 8 2.307 7.38 0 14.392-3.9 14.392-15.74 0-11.38-7.688-17.84-17.56-17.89-4.935 0-5.143.82-5.143 3.23v24.35z"/>
  <path fill="#FFF" d="M74.623 41.77c0 1.743-.104 1.743 1.975 1.743h5.61c5.404 0 4-4.1 5.25-4.1.414 0 .57.563.57.973 0 1.794-.104 3.537-.104 5.178 0 1.332.105 2.665.105 4.05 0 .458-.21.665-.58.665-1.61 0 .15-4.52-4.21-4.52h-7.69c-1.09 0-.94.87-.94 1.64v9.43c0 3.02-.42 4.25 3.95 4.25 12 0 13.77-5.28 14.44-5.28.36 0 .41.51.41.61 0 1.84-1.35 3.64-2.6 4.97-1.67 1.84-2.81 1.74-5.09 1.74-3.95 0-7.9-.31-11.85-.21-2.08.05-4.26.2-6.34.2-.47 0-.78-.1-.78-.51.1-.62.62-.52 2.28-1.34 1.35-.617 1.46-2.05 1.46-4.46V33.46c0-2.305 0-4.765-2.81-5.175-.42-.106-1.56-.21-1.56-.824 0-.41.31-.61 1.82-.61 9.82 0 12.52.21 14.7.21 1.04 0 5.82-.2 7.43-.2.41 0 .52.52.52 1.13 0 5.69-.73 6.1-1.04 6.1-1.25 0-.42-2.46-1.25-3.64-1.35-1.74-6.756-1.43-8.83-1.43-4.99 0-4.88-.2-4.88 3.23v9.54zm24.16-4.82c0-10.66-6.287-7.687-6.287-9.584 0-.308.52-.512.78-.513.83 0 1.61.205 2.44.205.78 0 1.61-.205 2.39-.205.572 0 1.04.82 1.352 1.178l24.78 27.22c.314.36.522.57.625.57.104 0 .156-.15.156-.56V33.83c0-6.715-5.77-4.768-5.77-6.46 0-.358.26-.51.57-.51 1.56 0 3.06.203 4.73.203 1.76 0 4-.205 5.24-.205.31 0 .52.153.52.46 0 1.334-3.07.41-3.07 4.152v29.677c0 1.486-.05 2.205-.47 2.205-.37 0-.89-.258-1.98-1.44l-22.34-24.8c-.11-.102-.73-.973-1.09-.973-.21 0-.37.15-.37 1.18v20.96c0 4.61 4.57 2.82 4.57 4.2 0 .25-.06.66-.57.66-1.25 0-2.71-.21-5.25-.21-1.82 0-4.52.2-4.89.2-.63 0-.68-.31-.68-.57 0-1.79 4.57.46 4.57-6.72v-18.9zm38.342-5.69c-.053-3.74-4.21-2.715-4.21-3.843 0-.46.105-.563.52-.564 1.923 0 3.794.205 5.716.205 1.61 0 3.23-.205 4.84-.205.83 0 .99.102.99.512 0 1.23-3.74.05-3.74 3.896v27.53c0 3.49 4.63 2.31 4.63 3.85 0 .36-.15.52-1.03.52-1.19 0-3.43-.2-5.66-.2-3.17 0-4.26.21-4.98.21-.93 0-1.09-.26-1.09-.77 0-1.49 4.05.21 4.05-4.87V31.26zm8.885 22.81c-.208-1.025.05-1.59.57-1.59.728 0 .728.617.987 1.692.623 2.358 3.74 7.69 10.91 7.69 4.937 0 9.768-2.717 9.768-8.1 0-9.892-21.094-4.357-21.094-17.735 0-6.51 5.56-9.637 11.54-9.637 6.29 0 8 1.846 8.73 1.846.47 0 .57-.564 1.09-.564.31 0 .57.154.63.718l.78 6.97c.05.412-.05.77-.57.77-.57 0-.94-1.077-1.09-1.538-1.56-4.408-5.35-6.664-9.92-6.664-4.1 0-8.46 1.948-8.46 6.664 0 9.637 21.09 4 21.09 18.146 0 4.307-3.06 10.765-14.86 10.765-3.84 0-8.57-1.896-8.78-2.82l-1.29-6.612zm27.222-9.276c0-10.662 8.417-18.402 19.067-18.402 10.6 0 18.75 7.535 18.75 18.145 0 11.535-8.06 18.966-19.64 18.966-11.27 0-18.19-7.894-18.19-18.71zm3.793-1.486c0 9.48 6.287 18.658 16.575 18.658 7.584 0 13.662-5.998 13.662-15.48 0-9.33-6.39-18.402-16.52-18.402-8.73 0-13.717 7.124-13.717 15.224z"/>
  <path fill="#FFF" d="M214.538 36.95c0-10.66-6.287-7.687-6.287-9.584 0-.308.52-.512.78-.513.83 0 1.61.205 2.44.205.78 0 1.62-.205 2.4-.205.57 0 1.04.82 1.35 1.178L240 55.25c.31.36.52.566.622.566.103 0 .155-.155.155-.564V33.825c0-6.715-5.767-4.768-5.767-6.46 0-.358.26-.51.57-.512 1.56 0 3.066.205 4.73.205 1.766 0 4-.205 5.247-.205.312 0 .52.153.52.46 0 1.334-3.065.41-3.065 4.152v29.678c0 1.486-.055 2.205-.47 2.205-.364 0-.884-.256-1.976-1.437l-22.34-24.8c-.103-.1-.727-.97-1.09-.97-.208 0-.364.15-.364 1.18v20.96c0 4.62 4.572 2.82 4.572 4.21 0 .26-.052.67-.57.67-1.247 0-2.702-.2-5.248-.2-1.818 0-4.52.21-4.884.21-.623 0-.676-.31-.676-.56 0-1.79 4.573.46 4.573-6.71V36.95z"/>
</svg>
